<?xml version="1.0" encoding="UTF-8" standalone="no"?>
<svg
   viewBox="0 0 656.99999 437.99925"
   height="437.99973"
   width="657"
   xml:space="preserve"
   id="svg2"
   version="1.1"
   sodipodi:docname="aboutus.svg"
   inkscape:version="1.2.1 (9c6d41e410, 2022-07-14)"
   xmlns:inkscape="http://www.inkscape.org/namespaces/inkscape"
   xmlns:sodipodi="http://sodipodi.sourceforge.net/DTD/sodipodi-0.dtd"
   xmlns="http://www.w3.org/2000/svg"
   xmlns:svg="http://www.w3.org/2000/svg"
   xmlns:rdf="http://www.w3.org/1999/02/22-rdf-syntax-ns#"
   xmlns:cc="http://creativecommons.org/ns#"
   xmlns:dc="http://purl.org/dc/elements/1.1/"><sodipodi:namedview
     id="namedview183"
     pagecolor="#ffffff"
     bordercolor="#000000"
     borderopacity="0.25"
     inkscape:showpageshadow="2"
     inkscape:pageopacity="0.0"
     inkscape:pagecheckerboard="0"
     inkscape:deskcolor="#d1d1d1"
     showgrid="false"
     inkscape:zoom="0.61049998"
     inkscape:cx="791.97382"
     inkscape:cy="354.62737"
     inkscape:window-width="1920"
     inkscape:window-height="1001"
     inkscape:window-x="-9"
     inkscape:window-y="-9"
     inkscape:window-maximized="1"
     inkscape:current-layer="svg2" /><metadata
     id="metadata8"><rdf:RDF><cc:Work
         rdf:about=""><dc:format>image/svg+xml</dc:format><dc:type
           rdf:resource="http://purl.org/dc/dcmitype/StillImage" /></cc:Work></rdf:RDF></metadata><defs
     id="defs6"><clipPath
       id="clipPath32"
       clipPathUnits="userSpaceOnUse"><path
         id="path30"
         d="m 9907.84,9184.7 c 0,-319.5 259.06,-578.6 578.46,-578.6 H 16912 c 319.5,0 578.5,259.1 578.5,578.6 v 3909.5 H 9907.84 V 9184.7" /></clipPath><clipPath
       id="clipPath168"
       clipPathUnits="userSpaceOnUse"><path
         id="path166"
         d="m 6091.4,7389 -1132.27,47 c -395.58,298.4 -543.77,947.7 -687.96,1761.2 l 396.46,-423.8 -182.33,-84.2 272.03,-644.3 c 23.5,-55.9 51.88,-109.5 85.13,-159.4 v 0 0 c 44.43,-66.5 97.46,-127 159.09,-178.6 97.75,-81.7 212.98,-142.5 335.38,-173.7 v 0 c 61.17,-15.8 124.29,-24.1 187.97,-24.1 1.07,0 2.15,0 3.23,0 l 593.61,3.8 -30.34,-123.9" /></clipPath></defs><g
     id="g696"
     transform="matrix(0.82922273,0,0,0.82922273,-7.3635887,0.55113521)"><path
       id="path18"
       style="fill:#9192ff;fill-opacity:1;fill-rule:nonzero;stroke:none;stroke-width:0.0341923"
       d="m 419.23372,197.84224 -0.38961,-0.73592 4.82192,-2.14563 0.38961,0.73592 -4.82192,2.14563 m -9.64383,4.28798 -0.38961,-0.73266 4.82191,-2.14562 0.38962,0.73592 -4.82192,2.14236 m -9.64348,4.29125 -0.39068,-0.73593 4.82263,-2.14562 0.38961,0.73592 -4.82156,2.14563 m -9.64383,4.29124 -0.39104,-0.73592 4.82227,-2.14562 0.39105,0.73592 -4.82228,2.14562 m -9.64741,4.28798 -0.38675,-0.73592 4.8212,-2.14235 0.39104,0.73592 -4.82549,2.14235 m -9.87331,3.90203 -0.32277,-0.76209 c 1.67284,-0.59528 3.33709,-1.21673 4.94559,-1.85125 l 0.35459,0.749 c -1.61923,0.6378 -3.29421,1.26579 -4.97741,1.86434 m -10.14783,3.24787 -0.26808,-0.78171 c 1.72359,-0.49389 3.43146,-1.01394 5.0757,-1.53726 l 0.29489,0.7719 c -1.65282,0.52659 -3.36998,1.04665 -5.10251,1.54707 m -10.33692,2.68858 -0.22161,-0.79153 c 1.74718,-0.40885 3.48508,-0.84059 5.16578,-1.2756 l 0.24342,0.78825 c -1.6875,0.43829 -3.43289,0.86676 -5.18759,1.27888 m -10.08098,3.00256 -0.39677,-0.73265 c 1.61458,-0.73265 3.31208,-1.34756 5.04497,-1.83163 l 0.26093,0.77844 c -1.68606,0.47426 -3.33781,1.07281 -4.90913,1.78584 m -8.45784,5.70422 -0.65448,-0.5593 c 0.26022,-0.25512 0.52652,-0.50697 0.79925,-0.75555 0.99905,-0.90273 2.09926,-1.75967 3.27061,-2.54465 l 0.52794,0.66069 c -1.13596,0.75882 -2.20185,1.58959 -3.1691,2.46616 -0.2645,0.23877 -0.52294,0.48407 -0.77422,0.73265 m -5.4621,8.17365 -0.84142,-0.27474 c 0.6098,-1.55362 1.40332,-3.06144 2.35913,-4.49077 l 0.76207,0.42847 c -0.92435,1.38027 -1.69143,2.83903 -2.27978,4.33704 m 7.63786,0.82751 c -1.69357,-0.29437 -3.46113,-0.46445 -5.25407,-0.5037 l 0.0218,-0.81769 c 1.84155,0.0393 3.65772,0.21587 5.39883,0.51678 l -0.16657,0.80461 m -15.7311,0.67705 -0.23484,-0.78826 c 1.7454,-0.43501 3.5344,-0.75554 5.31769,-0.9616 l 0.11081,0.81115 c -1.74218,0.19951 -3.48937,0.51678 -5.19366,0.93871 m 25.35706,2.98621 c -1.30074,-0.906 -2.83667,-1.68772 -4.56634,-2.32552 l 0.33421,-0.75881 c 1.8033,0.66396 3.40965,1.48492 4.7733,2.43345 l -0.54117,0.65088 m -35.05129,0.84386 -0.47004,-0.69668 c 1.51663,-0.85694 3.13514,-1.62884 4.81119,-2.28953 l 0.35351,0.75227 c -1.6353,0.64434 -3.21485,1.39662 -4.69466,2.23394 m 15.63924,4.23237 c -0.10188,-0.77517 -0.15371,-1.57324 -0.15371,-2.36803 -3.5e-4,-0.86349 0.0608,-1.74986 0.18194,-2.62643 l 0.88682,0.10139 c -0.11688,0.84386 -0.1755,1.69426 -0.17515,2.52504 0,0.76209 0.0497,1.52745 0.14763,2.26991 l -0.88753,0.0981 m -23.60702,2.07694 -0.68487,-0.52659 c 1.15919,-1.26579 2.43992,-2.45635 3.8075,-3.53897 l 0.58442,0.61817 c -1.33112,1.05319 -2.57789,2.21431 -3.70705,3.44739 m 48.57875,0.85694 -0.89361,-0.0196 0.003,-0.21587 c 0,-1.22654 -0.27309,-2.42691 -0.78924,-3.47356 -0.13476,-0.27147 -0.2831,-0.53968 -0.44359,-0.79807 l 0.77744,-0.4023 c 0.17372,0.28129 0.33421,0.56911 0.48005,0.86348 0.56869,1.15131 0.86895,2.46943 0.86895,3.81045 l -0.003,0.23549 m -20.64845,6.14905 c -1.20244,-1.18402 -2.19221,-2.61007 -2.94141,-4.24219 l 0.82391,-0.31726 c 0.70845,1.5438 1.64103,2.88809 2.77198,4.00015 l -0.65448,0.5593 m -33.77308,1.13823 -0.75957,-0.43174 c 0.94008,-1.38681 1.86657,-2.78343 2.77877,-4.18659 l 0.76779,0.41866 c -0.9147,1.40643 -1.8437,2.80632 -2.78699,4.19967 m 49.04951,1.18074 -0.44716,-0.70975 c 1.47195,-0.77517 2.70406,-1.9134 3.56371,-3.2904 l 0.77601,0.40231 c -0.93829,1.50455 -2.28442,2.74744 -3.89256,3.59784 m -5.93321,1.39662 c -1.64924,0 -3.3135,-0.2911 -4.81512,-0.84058 l 0.3317,-0.75882 c 1.39654,0.51024 2.94677,0.78171 4.48342,0.78171 0.13369,-0.0131 0.24628,-0.01 0.35637,-0.01 0.0729,0 0.14512,0 0.22198,-0.003 l 0.0436,0.81769 c -0.20767,0.01 -0.45467,-0.003 -0.62195,0.0131 m -48.95836,5.66825 -0.73991,-0.45791 c 1.00084,-1.35083 1.98596,-2.71147 2.95678,-4.08192 l 0.74991,0.44482 c -0.97367,1.37373 -1.96236,2.74091 -2.96678,4.09501 m -6.21917,8.01665 -0.71631,-0.49061 c 1.04874,-1.28869 2.10749,-2.61989 3.1455,-3.95764 l 0.72847,0.471 c -1.04195,1.34428 -2.10391,2.68203 -3.15766,3.97725 m -6.61342,7.74518 -0.69022,-0.51678 c 1.11558,-1.24289 2.24045,-2.53158 3.34352,-3.82353 l 0.70417,0.5037 c -1.10736,1.29849 -2.23724,2.59045 -3.35747,3.83661 m -7.02484,7.441 -0.66056,-0.54949 c 1.18493,-1.19056 2.37879,-2.42364 3.54834,-3.66326 l 0.67665,0.53314 c -1.17528,1.24616 -2.37415,2.48251 -3.56443,3.67961 m -7.4452,7.09103 -0.62767,-0.5822 c 1.25999,-1.13496 2.52498,-2.30589 3.75888,-3.48337 l 0.64375,0.56585 c -1.23925,1.18074 -2.50961,2.35822 -3.77496,3.49972 m -7.74688,6.79339 -0.61659,-0.59201 3.87862,-3.38525 0.61731,0.58874 -3.87934,3.38852" /><g
       transform="matrix(0.03879802,0,0,-0.03550191,42.588044,588.64026)"
       id="g20"><path
         id="path22"
         style="fill:#ebebff;fill-opacity:1;fill-rule:nonzero;stroke:none"
         d="m 9283.26,15290.8 c 0,-4.8 0,-9.3 0.55,-14 h 3028.99 c -8,249.7 -225.3,449.9 -491.8,449.9 -85.5,0 -165.7,-20.6 -235.7,-56.6 3.7,194.3 -89.7,380.5 -261.7,480.3 -258.2,149.6 -595.9,48.1 -753.9,-226.9 -47.6,-83 -73.7,-172.1 -79.6,-260.7 -126,57.7 -282,92 -451.3,92 -417.33,0 -755.54,-207.8 -755.54,-464" /></g><path
       id="path24"
       style="fill:#9192ff;fill-opacity:1;fill-rule:nonzero;stroke:none;stroke-width:0.0341923"
       d="m 111.04068,296.45265 h 95.59226 c 0,-0.0327 0,-0.0687 0,-0.10139 0,-7.27092 -10.62072,-13.18774 -23.67564,-13.18774 -5.15863,0 -10.07027,0.91581 -14.20303,2.64932 l -0.44145,0.18316 -0.0329,-0.44155 c -0.19016,-2.61334 -1.02622,-5.11875 -2.48495,-7.45081 -2.48745,-3.9609 -6.42898,-6.77376 -11.09756,-7.91853 -4.27324,-1.04992 -8.67838,-0.53968 -12.40115,1.43259 -5.14648,2.73437 -8.27054,7.98068 -8.15258,13.69798 l 0.0104,0.51024 -0.49827,-0.23222 c -2.2401,-1.05319 -4.77688,-1.61249 -7.33582,-1.61249 -8.2062,0 -14.84857,5.45237 -15.27929,12.47144 m 96.20742,0.61491 h -96.90301 l 0.0107,-0.31727 c 0.25844,-7.50314 7.27077,-13.38071 15.96416,-13.38071 2.4803,0 4.94059,0.50042 7.15138,1.45549 0.0647,-5.74347 3.2824,-10.97343 8.48893,-13.73723 3.87791,-2.05731 8.46498,-2.58718 12.91123,-1.49474 4.84193,1.18729 8.92751,4.10154 11.50433,8.20636 1.42906,2.28299 2.28049,4.72626 2.53535,7.27419 4.12704,-1.65174 8.97183,-2.52177 14.04611,-2.52177 13.42451,0 24.34585,6.19157 24.34585,13.79938 0,0.15045 -10e-4,0.29437 -0.02,0.44482 l -0.035,0.27148" /><g
       id="g26"
       transform="matrix(0.03574438,0,0,-0.03270769,42.588044,588.64026)"><g
         clip-path="url(#clipPath32)"
         id="g28"><g
           transform="scale(1.07304)"
           id="g34"><path
             id="path36"
             style="fill:#ffffff;fill-opacity:1;fill-rule:nonzero;stroke:none"
             d="m 9233.46,8559.54 c 0,-297.76 241.43,-539.22 539.09,-539.22 h 5988.35 c 297.7,0 539.1,241.46 539.1,539.22 V 12202.9 H 9233.46 V 8559.54" /></g><g
           transform="scale(1.03664)"
           id="g38"><path
             id="path40"
             style="fill:#d1d1ff;fill-opacity:1;fill-rule:nonzero;stroke:none"
             d="m 9174.86,11669.7 c 85.52,274.2 356.03,484.6 651.62,506.9 295.62,22.3 597.12,-145 726.52,-403 157.3,1.5 312.2,-85.7 388.6,-218.7 76.4,-132.9 71,-306 -13.5,-434 187.3,-32.4 355.4,-155.7 438.3,-321.2 82.8,-165.6 78.4,-369.3 -11.8,-531 206.1,104.8 469.8,95.2 667.5,-24.2 197.8,-119.4 322.4,-344.21 315.5,-569.27 128.4,201.38 374.6,326.87 619.3,315.75 244.7,-11.15 478,-158.52 586.9,-370.75 114.9,343.8 421.2,621.27 783.7,709.97 362.5,88.7 769.1,-14.4 1040.4,-263.6 408,-63.9 705.3,-506.85 599,-892.42 220.4,-182.42 333.1,-478.96 287,-755.43 -46.1,-276.47 -249.3,-523.42 -517.6,-629.05 l -7019.73,4.54 -598.42,2678.26 1056.71,1197.2" /></g><path
           id="path42"
           style="fill:#f6f6ff;fill-opacity:1;fill-rule:nonzero;stroke:none"
           d="m 16199.2,8606.1 h -2882.9 c 149.9,145.5 297.4,303.3 441.6,470.5 4,-7.3 7.9,-14.8 11.6,-22.3 6.7,20.8 14.1,41.4 22.1,61.7 137.5,161.3 272,331.3 403.3,508 108.9,76.6 231,134.1 360.1,166.9 86.7,22.1 176,32.8 265.2,32.8 284.7,0 570,-108.7 776.6,-305.2 404.4,-65.2 700,-515.5 602.4,-912.4 m -6291.36,1704.8 v 1364.3 c 45.81,13.4 92.96,22.2 140.76,26 17.8,1.4 35.7,2.1 53.6,2.1 278.2,0 552.2,-168 673.7,-419.2 1.4,0 2.8,0 4.2,0 156.1,0 309.2,-89.9 384.9,-226.4 76.4,-137.8 70.8,-317.2 -13.9,-449.9 25.4,-4.6 50.5,-10.8 75,-18.7 -430.2,-129.9 -864.6,-217.1 -1318.26,-278.2" /><path
           id="path44"
           style="fill:#fff6e9;fill-opacity:1;fill-rule:nonzero;stroke:none"
           d="m 14040,9972.7 c -112.9,220 -354.7,372.8 -608.4,384.3 -10.5,0.5 -20.9,0.7 -31.4,0.7 -243.1,0 -483,-127.8 -610.6,-328 7.2,233.3 -122,466.4 -327,590.2 -110.2,66.5 -240.1,100.1 -369.9,100.1 -111.7,0 -223.3,-24.9 -322.1,-75.1 27.5,49.2 47.2,102.2 59.3,156.8 976.6,394.9 1968.6,1051.6 3155.1,2167.4 l 177.6,-158.8 c -337.9,-358.8 -806.7,-717.1 -1348.9,-1183 l 831.1,338.7 c -101.9,-168.8 -250.3,-405.2 -333.5,-506.5 191.5,88.4 499.7,282.9 601.8,386.1 0,-144 -173.4,-384.7 -249,-516.2 391.3,334.9 751.4,735.1 920.1,1104.2 l 174.1,-155.6 c -243.8,-510.5 -523.4,-1040.9 -831.4,-1553.8 -25,-4.3 -49.9,-9.5 -74.5,-15.5 -375.8,-91.9 -693.3,-379.6 -812.4,-736" /><path
           id="path46"
           style="fill:#f1e8e9;fill-opacity:1;fill-rule:nonzero;stroke:none"
           d="m 13757.9,9076.6 c -113.2,207.9 -339.2,350.6 -575.9,361.5 -9.9,0.5 -19.8,0.7 -29.7,0.7 -235.1,0 -467.3,-128.1 -590.8,-328.5 7.1,233.3 -117.5,466.3 -315.5,589.9 -106.2,66.4 -231.5,99.9 -356.7,99.9 -108.1,0 -216.1,-25 -311.8,-75.4 90.4,167.7 95.1,378.9 12.3,550.4 -71.7,148.3 -207.1,263.8 -363.7,314 201.7,60.9 402.4,131.2 603.8,212.6 -12.1,-54.6 -31.8,-107.6 -59.3,-156.8 98.8,50.2 210.4,75.1 322.1,75.1 129.8,0 259.7,-33.6 369.9,-100.1 205,-123.8 334.2,-356.9 327,-590.2 127.6,200.2 367.5,328 610.6,328 10.5,0 20.9,-0.2 31.4,-0.7 253.7,-11.5 495.5,-164.3 608.4,-384.3 119.1,356.4 436.6,644.1 812.4,736 24.6,6 49.5,11.2 74.5,15.5 -229.4,-381.7 -474.4,-753.8 -732,-1100.2 -179.3,-126.2 -322.9,-304.1 -403.3,-508 -11.2,-13.2 -22.4,-26.3 -33.7,-39.4" /><path
           id="path48"
           style="fill:#fcf3e9;fill-opacity:1;fill-rule:nonzero;stroke:none"
           d="m 13316.3,8606.1 h -2830 c -319.4,0 -578.46,259.1 -578.46,578.6 v 1126.2 c 453.66,61.1 888.06,148.3 1318.26,278.2 156.6,-50.2 292,-165.7 363.7,-314 82.8,-171.5 78.1,-382.7 -12.3,-550.4 95.7,50.4 203.7,75.4 311.8,75.4 125.2,0 250.5,-33.5 356.7,-99.9 198,-123.6 322.6,-356.6 315.5,-589.9 123.5,200.4 355.7,328.5 590.8,328.5 9.9,0 19.8,-0.2 29.7,-0.7 236.7,-10.9 462.7,-153.6 575.9,-361.5 -144.2,-167.2 -291.7,-325 -441.6,-470.5 m 475.3,509.9 c 80.4,203.9 224,381.8 403.3,508 -131.3,-176.7 -265.8,-346.7 -403.3,-508" /><path
           id="path50"
           style="fill:#ffa121;fill-opacity:1;fill-rule:nonzero;stroke:none"
           d="m 15281.6,12943.3 c -342.4,-405.1 -858.8,-792.6 -1467.9,-1316 l 831.1,338.7 c -101.9,-168.8 -250.3,-405.2 -333.5,-506.5 191.5,88.4 499.7,282.9 601.8,386.1 0,-144 -173.4,-384.7 -249,-516.2 443.3,379.4 846.6,842.6 976.8,1249.4 l -359.3,364.5" /><path
           id="path52"
           style="fill:#ffffff;fill-opacity:1;fill-rule:nonzero;stroke:none"
           d="m 15570.8,12650 -226,229.2 c 11.6,14.5 22.9,29.1 33.9,43.6 l 204.4,-234.7 c -3.8,-12.6 -7.9,-25.3 -12.3,-38.1" /><path
           id="path54"
           style="fill:#ffc77a;fill-opacity:1;fill-rule:nonzero;stroke:none"
           d="m 15004.3,11860.8 c 45.2,86.8 148.1,246.1 149.6,340.2 -60.2,-68.5 -240.8,-198.9 -352.7,-258.7 49.3,67.1 137.7,223.2 198.5,334.7 l -485,-230.1 c 338.8,329.7 628.4,579.1 830.1,832.3 l 226,-229.2 c -89.9,-258.2 -318.1,-548.4 -566.5,-789.2" /><path
           id="path56"
           style="fill:#d1d1ff;fill-opacity:1;fill-rule:nonzero;stroke:none"
           d="m 12233.8,11546.9 c 2.7,-62.7 0,-168.4 -62.6,-204.6 -104.4,-60.4 -186.5,86.4 -224.9,160.1 -45.7,88.2 -34,197.5 69.4,236.7 136.6,51.9 213.1,-75.4 218.1,-192.2" /><g
           transform="scale(1.05446)"
           id="g58"><path
             id="path60"
             style="fill:#d1d1ff;fill-opacity:1;fill-rule:nonzero;stroke:none"
             d="m 16297.4,9147.62 c 2.6,-59.37 0,-159.61 -59.3,-194.03 -99,-57.28 -176.9,81.94 -213.3,151.93 -43.3,83.54 -32.3,187.2 65.8,224.47 129.5,49.13 202.1,-71.6 206.8,-182.37" /></g><path
           id="path62"
           style="fill:#d1d1ff;fill-opacity:1;fill-rule:nonzero;stroke:none"
           d="m 11766.4,12255.2 c 0,-48.4 -39.2,-87.5 -87.5,-87.5 -48.3,0 -87.5,39.1 -87.5,87.5 0,48.3 39.2,87.5 87.5,87.5 48.3,0 87.5,-39.2 87.5,-87.5" /><path
           id="path64"
           style="fill:#d1d1ff;fill-opacity:1;fill-rule:nonzero;stroke:none"
           d="m 16262.1,10676 c 0,-73.6 -59.6,-133.2 -133.2,-133.2 -73.6,0 -133.2,59.6 -133.2,133.2 0,73.6 59.6,133.2 133.2,133.2 73.6,0 133.2,-59.6 133.2,-133.2" /></g></g><g
       transform="matrix(0.03838232,0,0,-0.03512152,42.588044,588.64026)"
       id="g66"><path
         id="path68"
         style="fill:#9192ff;fill-opacity:1;fill-rule:nonzero;stroke:none"
         d="M 9238.5,12182.6 V 8553.33 c 0,-290.65 236.42,-527.09 527.07,-527.09 h 5984.03 c 290.7,0 527.1,236.44 527.1,527.09 V 12182.6 Z M 15749.6,8002.95 H 9765.57 c -303.41,0 -550.35,246.98 -550.35,550.38 V 12205.9 H 16300 V 8553.33 c 0,-303.4 -246.9,-550.38 -550.4,-550.38" /></g><g
       transform="matrix(0.03835515,0,0,-0.03509666,42.588044,588.64026)"
       id="g70"><path
         id="path72"
         style="fill:#ffffff;fill-opacity:1;fill-rule:nonzero;stroke:none"
         d="M 15760.9,13614.5 H 9772.55 c -297.66,0 -539.09,-241.3 -539.09,-539.1 v -872.5 H 16300 v 872.5 c 0,297.8 -241.4,539.1 -539.1,539.1" /></g><g
       transform="matrix(0.03838232,0,0,-0.03512152,42.588044,588.64026)"
       id="g74"><path
         id="path76"
         style="fill:#9192ff;fill-opacity:1;fill-rule:nonzero;stroke:none"
         d="m 9238.5,12205.9 h 7038.2 v 860.1 c 0,290.7 -236.4,527.2 -527.1,527.2 H 9765.57 c -290.65,0 -527.07,-236.5 -527.07,-527.2 z m 7061.5,-23.3 H 9215.22 v 883.4 c 0,303.5 246.94,550.4 550.35,550.4 h 5984.03 c 303.5,0 550.4,-246.9 550.4,-550.4 v -883.4" /></g><path
       id="path78"
       style="fill:#d1d1ff;fill-opacity:1;fill-rule:nonzero;stroke:none;stroke-width:0.0341923"
       d="m 435.37946,135.58642 c 0,5.73039 -5.0757,10.37488 -11.33812,10.37488 -6.26241,0 -11.33811,-4.64449 -11.33811,-10.37488 0,-5.72712 5.0757,-10.37161 11.33811,-10.37161 6.26242,0 11.33812,4.64449 11.33812,10.37161" /><path
       id="path80"
       style="fill:#ffffff;fill-opacity:1;fill-rule:nonzero;stroke:none;stroke-width:0.0341923"
       d="m 468.77186,135.58642 c 0,5.73039 -5.0757,10.37488 -11.33812,10.37488 -6.26241,0 -11.33811,-4.64449 -11.33811,-10.37488 0,-5.72712 5.0757,-10.37161 11.33811,-10.37161 6.26242,0 11.33812,4.64449 11.33812,10.37161" /><path
       id="path82"
       style="fill:#9192ff;fill-opacity:1;fill-rule:nonzero;stroke:none;stroke-width:0.0341923"
       d="m 457.43374,125.62366 c -6.00505,0 -10.89131,4.47114 -10.89131,9.96276 0,5.49489 4.88626,9.96603 10.89131,9.96603 6.00506,0 10.88774,-4.47114 10.88774,-9.96603 0,-5.49162 -4.88268,-9.96276 -10.88774,-9.96276 z m 0,20.74649 c -6.49832,0 -11.78492,-4.83747 -11.78492,-10.78373 0,-5.94299 5.2866,-10.78045 11.78492,-10.78045 6.49833,0 11.78135,4.83746 11.78135,10.78045 0,5.94626 -5.28302,10.78373 -11.78135,10.78373" /><path
       id="path84"
       style="fill:#ffffff;fill-opacity:1;fill-rule:nonzero;stroke:none;stroke-width:0.0341923"
       d="M 543.73497,145.49031 H 498.5934 c -5.97646,0 -10.81983,-4.43516 -10.81983,-9.90389 0,-5.46545 4.84337,-9.90062 10.81983,-9.90062 h 45.14157 c 5.97647,0 10.81983,4.43517 10.81983,9.90062 0,5.46873 -4.84336,9.90389 -10.81983,9.90389" /><path
       id="path86"
       style="fill:#9192ff;fill-opacity:1;fill-rule:nonzero;stroke:none;stroke-width:0.0341923"
       d="m 498.5934,126.09465 c -5.7191,0 -10.37302,4.25854 -10.37302,9.49177 0,5.2365 4.65392,9.49504 10.37302,9.49504 h 45.14157 c 5.71911,0 10.37302,-4.25854 10.37302,-9.49504 0,-5.23323 -4.65391,-9.49177 -10.37302,-9.49177 z m 45.14157,19.80451 H 498.5934 c -6.21238,0 -11.26663,-4.62487 -11.26663,-10.31274 0,-5.6846 5.05425,-10.30946 11.26663,-10.30946 h 45.14157 c 6.21238,0 11.26663,4.62486 11.26663,10.30946 0,5.68787 -5.05425,10.31274 -11.26663,10.31274" /><g
       transform="matrix(0.03639671,0,0,-0.03330461,42.588044,588.64026)"
       id="g88"><path
         id="path90"
         style="fill:#3335cf;fill-opacity:1;fill-rule:nonzero;stroke:none"
         d="m 16300,15024.7 c -497.3,-435.4 -1355.1,-135.3 -1621.6,-482.9 l 761.6,-603.1 860,1086" /></g><path
       id="path92"
       style="fill:#d1d1ff;fill-opacity:1;fill-rule:nonzero;stroke:none;stroke-width:0.0341923"
       d="m 576.83427,104.33095 v 0 c -1.38688,3.37871 -0.63267,7.17934 1.95879,9.89735 l 19.64154,20.58622 6.11944,-10.39777 -27.71977,-20.0858" /><g
       transform="matrix(0.0393131,0,0,-0.03597323,42.588044,588.64026)"
       id="g94"><path
         id="path96"
         style="fill:#3335cf;fill-opacity:1;fill-rule:nonzero;stroke:none"
         d="m 16134.4,13083.7 c -286.7,-540.5 165.6,-1249.8 -91.1,-1563.8 l -705.1,558.4 796.2,1005.4" /></g><g
       transform="matrix(0.03869401,0,0,-0.03540673,42.588044,588.64026)"
       id="g98"><path
         id="path100"
         style="fill:#d1d1ff;fill-opacity:1;fill-rule:nonzero;stroke:none"
         d="m 16300,11704.2 v 0 c -84.6,-56.7 -193.6,-62.4 -283.7,-14.8 l -682.3,360.9 249.6,221.2 716.4,-567.3" /></g><g
       transform="matrix(0.03977742,0,0,-0.0363981,42.588044,588.64026)"
       id="g102"><path
         id="path104"
         style="fill:#1b1b43;fill-opacity:1;fill-rule:nonzero;stroke:none"
         d="m 16300,14432.4 -620.4,-227.8 541,-428.4 79.4,656.2" /></g><g
       transform="matrix(0.03958368,0,0,-0.03622082,42.588044,588.64026)"
       id="g106"><path
         id="path108"
         style="fill:#c5c5ff;fill-opacity:1;fill-rule:nonzero;stroke:none"
         d="m 16300,13843.7 c -87.1,-986.6 -816,-1907.1 -1701.4,-2418.5 l -806.8,638.3 c 338.5,1065.1 969,1827.3 1964.6,2210.7 l 543.6,-430.5" /></g><path
       id="path110"
       style="fill:#3335cf;fill-opacity:1;fill-rule:nonzero;stroke:none;stroke-width:0.0341923"
       d="m 588.51911,151.69169 -13.85452,8.77547 39.62264,28.71081 6.16591,-14.36849 -31.93403,-23.11779" /><g
       transform="matrix(0.0387201,0,0,-0.03543061,42.588044,588.64026)"
       id="g112"><path
         id="path114"
         style="fill:#ffffff;fill-opacity:1;fill-rule:nonzero;stroke:none"
         d="m 16168.7,13481.9 c -131.2,-165.8 -372,-193.8 -537.7,-62.5 -165.8,131.2 -193.8,372 -62.5,537.7 131.3,165.8 372,193.7 537.7,62.5 165.8,-131.2 193.8,-372 62.5,-537.7" /></g><g
       transform="matrix(0.03834264,0,0,-0.03508521,42.588044,588.64026)"
       id="g116"><path
         id="path118"
         style="fill:#9192ff;fill-opacity:1;fill-rule:nonzero;stroke:none"
         d="m 15942.1,14092.8 -7.5,22.1 c 22.9,7.9 46.9,12.8 71.2,14.5 l 1.7,-23.3 c -22.3,-1.5 -44.3,-6 -65.4,-13.3 z m 194.9,-12.3 c -19.9,9.9 -41.2,17.1 -63,21.4 l 4.5,22.9 c 23.9,-4.7 47.1,-12.6 68.9,-23.5 z m -304,-62.1 -17.7,15.1 c 15.9,18.6 34.1,35 54.2,48.7 l 13.1,-19.3 c -18.3,-12.5 -35,-27.5 -49.6,-44.5 z m 402.9,-25.6 c -12.2,18.5 -26.9,35.5 -43.7,50.4 l 15.5,17.4 c 18.3,-16.2 34.3,-34.7 47.6,-55.1 z m -459.4,-93.7 -23,4.1 c 4.3,24 11.8,47.3 22.2,69.3 l 21.1,-10 c -9.5,-20.1 -16.4,-41.5 -20.3,-63.4 z m 500.2,-32 c -1.1,22.4 -5.2,44.4 -12,65.6 l 22.1,7.2 c 7.5,-23.1 11.9,-47.2 13.2,-71.5 z m -510.5,-107.7 c -8.4,22.8 -13.7,46.7 -15.8,71 l 23.2,2.1 c 1.9,-22.3 6.8,-44.2 14.4,-65.1 z m 503,-32.1 -20.6,10.8 c 10.3,19.8 17.9,40.8 22.7,62.6 l 22.7,-4.9 c -5.2,-23.9 -13.5,-46.9 -24.8,-68.5 z m -419.5,-85.5 c -18.9,15.5 -35.6,33.4 -49.6,53.2 l 19,13.5 c 12.8,-18.1 28.1,-34.5 45.5,-48.7 z m 338.8,-9 -13.8,18.8 c 17.8,13.2 33.9,28.8 47.8,46.3 l 18.3,-14.4 c -15.2,-19.2 -32.7,-36.2 -52.3,-50.7 z m -207.2,-50.4 c -24.2,3.8 -47.7,10.9 -69.8,20.9 l 9.6,21.2 c 20.3,-9.1 41.7,-15.6 63.8,-19.1 z m 72.7,-1.8 -2.4,23.2 c 22.1,2.3 43.9,7.6 64.7,15.7 l 8.4,-21.8 c -22.6,-8.8 -46.5,-14.6 -70.7,-17.1" /></g><path
       id="path120"
       style="fill:#1b1b43;fill-opacity:1;fill-rule:nonzero;stroke:none;stroke-width:0.0341923"
       d="m 583.98315,187.61454 -0.70774,-0.51351 c -1.03659,-0.749 -1.21174,-2.13908 -0.39319,-3.0876 l 27.7984,-32.12223 c 0.81855,-0.94852 2.34126,-1.10879 3.37785,-0.35651 l 0.70416,0.51024 c 1.03659,0.75228 1.21531,2.14235 0.39319,3.09088 l -27.79483,32.11895 c -0.82212,0.94852 -2.34126,1.11206 -3.37784,0.35978" /><g
       transform="matrix(0.03728639,0,0,-0.0341187,42.588044,588.64026)"
       id="g122"><path
         id="path124"
         style="fill:#9192ff;fill-opacity:1;fill-rule:nonzero;stroke:none"
         d="M 13175.8,6139.63 H 13032 v 23.97 h 143.8 z m 287.6,0 h -143.8 v 23.97 h 143.8 z m 287.6,0 h -143.8 v 23.97 h 143.8 z m 287.6,0 h -143.8 v 23.97 h 143.8 z m 287.6,0 h -143.8 v 23.97 h 143.8 z m 287.5,0 H 14470 v 23.97 h 143.7 z m 287.6,0 h -143.8 v 23.97 h 143.8 z m 287.6,0 h -143.8 v 23.97 h 143.8 z m 287.6,0 h -143.8 v 23.97 h 143.8 z m 287.6,0 h -143.8 v 23.97 h 143.8 z m 274.4,-47.55 c -41.7,21.28 -86.3,35.66 -132.6,42.66 l 3.6,23.68 c 48.8,-7.38 95.9,-22.53 139.9,-44.96 z m -3279.1,-5.75 -11.5,20.99 c 43.5,23.78 90.1,40.27 138.7,48.99 l 4.3,-23.58 c -46.1,-8.25 -90.3,-23.87 -131.5,-46.4 z m 3472.1,-190.29 c -20.7,41.89 -47.8,80.14 -80.8,113.6 l 17.2,16.78 c 34.7,-35.28 63.4,-75.55 85.1,-119.83 z m -3659.4,-11.12 -21.8,9.97 c 20.5,44.86 48,85.99 81.7,122.22 l 17.6,-16.39 c -32,-34.32 -58.1,-73.24 -77.5,-115.8 z M 16300,5620.81 h -24 v 83.12 c 0,19.65 -1.3,39.49 -3.9,58.95 l 23.7,3.17 c 2.8,-20.42 4.2,-41.32 4.2,-62.12 z m -3767.2,-12.65 h -23.9 v 95.77 c 0,16.29 0.8,32.88 2.5,49.18 l 23.9,-2.59 c -1.6,-15.44 -2.5,-31.16 -2.5,-46.59 z M 16300,5333.22 h -24 v 143.8 h 24 z m -3767.2,-12.65 h -23.9 v 143.79 h 23.9 z M 16300,5045.63 h -24 v 143.79 h 24 z m -3767.2,-12.66 h -23.9 v 143.8 h 23.9 z M 16300,4758.03 h -24 v 143.8 h 24 z m -3767.2,-12.65 h -23.9 v 143.8 h 23.9 z M 16300,4470.44 h -24 v 143.8 h 24 z m -3767.2,-12.65 h -23.9 v 143.79 h 23.9 z M 16300,4182.85 h -24 v 143.79 h 24 z m -3767.2,-12.65 h -23.9 v 143.79 h 23.9 z m 3753.1,-276.67 -23.2,5.85 c 8.8,34.89 13.3,71.03 13.3,107.37 v 32.3 h 24 v -32.3 c 0,-38.35 -4.7,-76.41 -14.1,-113.22 z m -3759.6,-12.65 c -11.6,40.74 -17.4,83.11 -17.4,125.87 v 19.65 h 23.9 v -19.65 c 0,-40.55 5.6,-80.72 16.5,-119.26 z m 3603,-231.61 -15.1,18.6 c 36.4,29.52 67.8,64.42 93,103.81 l 20.2,-13.03 c -26.6,-41.51 -59.7,-78.32 -98.1,-109.38 z m -3439.5,-8.05 c -39.3,30 -73.3,65.85 -101.1,106.6 l 19.8,13.51 c 26.3,-38.63 58.6,-72.66 95.8,-101.13 z m 3167.8,-93.85 -0.9,23.96 c 47,1.72 93,10.93 136.6,27.32 l 8.5,-22.43 c -46.1,-17.26 -94.6,-26.94 -144.2,-28.85 z m -2893.3,-0.29 c -49.7,0.48 -98.4,8.82 -144.8,24.73 l 7.7,22.62 c 44,-15.05 90.2,-22.91 137.3,-23.39 z m 287.7,0 h -143.8 v 23.96 h 143.8 z m 287.6,0 h -143.8 v 23.96 h 143.8 z m 287.6,0 h -143.8 v 23.96 h 143.8 z m 287.6,0 H 13971 v 23.96 h 143.8 z m 287.6,0 h -143.8 v 23.96 h 143.8 z m 287.6,0 h -143.8 v 23.96 h 143.8 z m 287.6,0 h -143.8 v 23.96 h 143.8 z m 287.5,0 h -143.8 v 23.96 h 143.8 z m 287.6,0 h -143.8 v 23.96 h 143.8 z m 287.6,0 h -143.8 v 23.96 h 143.8 v -23.96" /></g><g
       transform="matrix(0.03644425,0,0,-0.03334811,42.588044,588.64026)"
       id="g126"><path
         id="path128"
         style="fill:#9192ff;fill-opacity:1;fill-rule:nonzero;stroke:none"
         d="m 15938,4054.01 h -3130.2 c -199.9,0 -362,162.12 -362,362.11 v 2001.4 c 0,199.99 162.1,362.02 362,362.02 H 15938 c 200,0 362,-162.03 362,-362.02 v -2001.4 c 0,-199.99 -162,-362.11 -362,-362.11" /></g><path
       id="path130"
       style="fill:#ffffff;fill-opacity:1;fill-rule:nonzero;stroke:none;stroke-width:0.0341923"
       d="m 535.79972,443.90873 h -15.20923 v -28.26271 h 15.20923 v 28.26271" /><path
       id="path132"
       style="fill:#ffffff;fill-opacity:1;fill-rule:nonzero;stroke:none;stroke-width:0.0341923"
       d="m 561.26759,443.90873 h -15.20566 v -27.35671 h 15.20566 v 27.35671" /><path
       id="path134"
       style="fill:#ffffff;fill-opacity:1;fill-rule:nonzero;stroke:none;stroke-width:0.0341923"
       d="M 586.73904,443.90873 H 571.5298 v -41.6467 h 15.20924 v 41.6467" /><path
       id="path136"
       style="fill:#ffffff;fill-opacity:1;fill-rule:nonzero;stroke:none;stroke-width:0.0341923"
       d="m 612.21048,443.90873 h -15.20923 v -53.86302 h 15.20923 v 53.86302" /><path
       id="path138"
       style="fill:#ffffff;fill-opacity:1;fill-rule:nonzero;stroke:none;stroke-width:0.0341923"
       d="m 607.2027,378.62091 h -81.608 v -3.26423 h 81.608 v 3.26423" /><path
       id="path140"
       style="fill:#ffa121;fill-opacity:1;fill-rule:nonzero;stroke:none;stroke-width:0.0341923"
       d="m 277.11693,273.82547 c -2.58611,-8.20309 -8.06,-15.39551 -15.57168,-20.45866 l -3.01683,-2.03442 2.56037,48.48261 19.80239,-14.01524 -3.77425,-11.97429" /><path
       id="path142"
       style="fill:#ffbc96;fill-opacity:1;fill-rule:nonzero;stroke:none;stroke-width:0.0341923"
       d="m 340.75336,332.43111 -4.39906,-7.88255 c -1.11415,-1.99844 -3.09296,-3.47356 -5.45423,-4.07211 l -12.94447,-3.28058 -33.29982,-19.45453 -3.7646,-11.94158 -19.80239,14.01524 0.18015,3.40487 c 0.36031,6.83264 4.93952,12.88029 11.80208,15.58849 l 32.3333,12.76254 15.36901,0.31399 c 4.95238,1.56016 6.66025,5.46873 9.73391,4.0623 1.14561,-0.52332 -3.32995,-7.26765 -3.32995,-7.26765 l 7.4284,7.49987 6.14767,-3.7483" /><path
       id="path144"
       style="fill:#d28572;fill-opacity:1;fill-rule:nonzero;stroke:none;stroke-width:0.0341923"
       d="m 280.69173,302.73253 -0.78102,-0.60836 4.35474,-4.68702 0.78101,0.60837 -4.35473,4.68701" /><path
       id="path146"
       style="fill:#26289c;fill-opacity:1;fill-rule:nonzero;stroke:none;stroke-width:0.0341923"
       d="m 282.83782,352.06881 24.22647,-1.95592 c 15.77006,-1.2756 29.48839,10.37815 30.2569,25.7017 l 5.47461,109.18154 -33.41921,0.9518 -26.53877,-133.87912" /><path
       id="path148"
       style="fill:#1b1b43;fill-opacity:1;fill-rule:nonzero;stroke:none;stroke-width:0.0341923"
       d="m 312.06421,484.86203 1.02479,30.15976 h 49.52277 l -24.41985,-18.59432 -1.53701,-14.53203 -24.5907,2.96659" /><path
       id="path150"
       style="fill:#ffffff;fill-opacity:1;fill-rule:nonzero;stroke:none;stroke-width:0.0341923"
       d="m 328.40046,504.51281 -1.25033,-1.48493 10.41627,-7.34287 1.25069,1.48492 -10.41663,7.34288" /><path
       id="path152"
       style="fill:#d1d1ff;fill-opacity:1;fill-rule:nonzero;stroke:none;stroke-width:0.0341923"
       d="m 300.79329,484.86203 1.02479,30.15976 h 49.52277 l -24.41985,-18.59432 -1.53665,-14.53203 -24.59106,2.96659" /><path
       id="path154"
       style="fill:#ffffff;fill-opacity:1;fill-rule:nonzero;stroke:none;stroke-width:0.0341923"
       d="m 317.12955,504.51281 -1.2507,-1.48493 10.41698,-7.34287 1.2507,1.48492 -10.41698,7.34288" /><path
       id="path156"
       style="fill:#3335cf;fill-opacity:1;fill-rule:nonzero;stroke:none;stroke-width:0.0341923"
       d="m 337.6797,487.83189 h -40.98486 l -29.21174,-82.24349 -4.08808,-11.5131 -58.40274,-0.2355 c -3.60697,-0.0458 -7.05988,-1.57324 -9.9902,-3.83334 -6.20916,-4.79168 -9.06763,-12.31772 -7.94061,-19.68022 l 5.12324,-33.44034 86.76376,10.31928 c 16.45564,1.96246 29.74469,13.23026 33.12611,28.09263 l 25.60512,112.53408" /><path
       id="path158"
       style="fill:#1b1b43;fill-opacity:1;fill-rule:nonzero;stroke:none;stroke-width:0.0341923"
       d="m 275.43408,394.0753 -7.95098,11.5131 -4.08808,-11.5131 z" /><path
       id="path160"
       style="fill:#ffa121;fill-opacity:1;fill-rule:nonzero;stroke:none;stroke-width:0.0341923"
       d="m 264.70648,330.82844 c -0.42,1.54707 -0.86037,3.09414 -1.31146,4.65103 l -3.07366,11.48367 -40.47229,-1.53726 -29.13989,-1.10552 c -7.72579,-0.2911 -13.32014,-6.85553 -11.74239,-13.78302 l 13.5868,-59.82564 c 1.74147,-10.17209 10.76835,-18.00231 21.96742,-19.06204 l 33.24871,-3.13013 10.75834,2.81286 c 10.50242,5.15474 10.51278,14.50259 11.01464,20.62547 2.20292,26.79414 -0.51222,43.0237 -4.83622,58.87058" /><g
       id="g162"
       transform="matrix(0.03574438,0,0,-0.03270769,42.588044,588.64026)"><g
         clip-path="url(#clipPath168)"
         id="g164"><path
           id="path170"
           style="fill:#ba792b;fill-opacity:1;fill-rule:nonzero;stroke:none"
           d="M 4271.17,7389 H 6121.74 V 9197.2 H 4271.17 Z" /></g></g><path
       id="path172"
       style="fill:#1b1b43;fill-opacity:1;fill-rule:nonzero;stroke:none;stroke-width:0.0341923"
       d="m 229.22411,265.82517 c 1.77292,1.73678 3.7914,3.25442 6.04795,4.3861 2.24725,1.13169 4.69323,1.95919 7.2268,2.23394 2.50675,0.29764 5.1529,0.10466 7.35369,-0.99104 2.24975,-1.02376 3.68131,-3.18573 3.95047,-5.52433 l 0.39962,0.0229 c -0.0139,1.22654 -0.35208,2.46616 -1.01836,3.56841 -0.67271,1.10225 -1.69929,2.01807 -2.89172,2.64932 -2.4081,1.27233 -5.26658,1.50456 -7.9231,1.19383 -2.67368,-0.33688 -5.24835,-1.19383 -7.53063,-2.46616 -2.29836,-1.25597 -4.30648,-2.92079 -5.92177,-4.83746 l 0.30705,-0.2355" /><path
       id="path174"
       style="fill:#1b1b43;fill-opacity:1;fill-rule:nonzero;stroke:none;stroke-width:0.0341923"
       d="m 270.43773,302.37602 -0.766,-0.0491 c 0.73598,-9.43289 -0.01,-21.02777 -2.21651,-34.45755 l 0.76029,-0.10466 c 2.21508,13.48211 2.96285,25.12605 2.22222,34.61128" /><path
       id="path176"
       style="fill:#1b1b43;fill-opacity:1;fill-rule:nonzero;stroke:none;stroke-width:0.0341923"
       d="m 339.21636,342.50835 h -38.08135 v -6.87516 h 38.08135 v 6.87516" /><path
       id="path178"
       style="fill:#9192ff;fill-opacity:1;fill-rule:nonzero;stroke:none;stroke-width:0.0341923"
       d="m 405.13257,342.50835 h -76.5037 l 35.17819,-61.56568 h 76.50513 l -35.17962,61.56568" /><path
       id="path180"
       style="fill:#1b1b43;fill-opacity:1;fill-rule:nonzero;stroke:none;stroke-width:0.0341923"
       d="m 237.65156,199.29773 c -8.96505,-8.08861 -25.87143,-4.69028 -25.61514,8.9063 -18.44303,4.45152 -19.46782,22.97062 -12.03906,32.46239 l 6.4036,0.46772 1.40869,-6.91441 3.71456,7.03215 17.93045,1.05646 8.1969,-43.01061" /><path
       id="path182"
       style="fill:#ffbc96;fill-opacity:1;fill-rule:nonzero;stroke:none;stroke-width:0.0341923"
       d="m 252.63668,229.53272 v 25.82926 c 0,0.2355 -0.0104,0.46118 -0.0307,0.68359 -0.44073,5.31827 -6.06583,9.07639 -11.81352,7.71902 -8.47392,-2.00825 -14.36531,-9.02078 -14.29346,-17.02763 l 0.14333,-17.20424 h 25.99439" /><path
       id="path184"
       style="fill:#1b1b43;fill-opacity:1;fill-rule:nonzero;stroke:none;stroke-width:0.0341923"
       d="m 252.63668,240.69912 v 14.66286 c 0,0.2355 -0.0104,0.46118 -0.0307,0.68359 -7.55136,-1.13168 -16.28121,-9.13198 -18.41229,-17.83877 l 18.44303,2.49232" /><path
       id="path186"
       style="fill:#ffbc96;fill-opacity:1;fill-rule:nonzero;stroke:none;stroke-width:0.0341923"
       d="m 267.91347,231.44612 c -0.3889,2.05404 -0.91184,4.15388 -1.6085,6.14904 -2.25404,6.55463 -6.30138,11.99064 -13.54533,11.04539 -17.02898,-2.23066 -26.50696,-18.2836 -26.50696,-18.2836 l 11.65016,-12.18688 7.81766,-9.61933 23.43294,9.26281 c 0,0 0.12296,6.55462 -1.23997,13.63257" /><path
       id="path188"
       style="fill:#1b1b43;fill-opacity:1;fill-rule:nonzero;stroke:none;stroke-width:0.0341923"
       d="m 231.29049,226.25214 c 7.47379,-0.21914 13.25402,-3.70251 15.71073,-13.59659 0,0 17.41823,13.75358 25.95685,6.40744 7.15031,-6.14905 -4.97955,-20.29839 -25.05752,-21.98611 -7.31402,-0.61164 -14.6048,1.47512 -20.33641,5.67805 -9.73105,7.13682 -10.66076,23.72943 -1.56739,29.4729 l 5.29374,-5.97569" /><path
       id="path190"
       style="fill:#ffa121;fill-opacity:1;fill-rule:nonzero;stroke:none;stroke-width:0.0341923"
       d="m 222.53884,208.90725 c -0.48827,-1.61576 -0.12439,-3.40814 0.66377,-4.94867 0.79996,-1.55035 2.03421,-2.90118 3.50759,-3.94782 1.47339,-1.04992 3.20234,-1.8022 5.01959,-2.1489 1.81045,-0.34016 3.73564,-0.28782 5.40955,0.37941 -1.72824,0.51024 -3.22557,1.04992 -4.63247,1.71389 -1.40297,0.65742 -2.69977,1.41951 -3.91401,2.27645 -1.21138,0.86021 -2.33661,1.81528 -3.3496,2.8979 -1.01908,1.08917 -1.91304,2.283 -2.70442,3.77774" /><path
       id="path192"
       style="fill:#ffbc96;fill-opacity:1;fill-rule:nonzero;stroke:none;stroke-width:0.0341923"
       d="m 234.45994,225.36576 c 1.44515,3.30348 0.19445,6.86861 -2.79378,7.96105 -2.98787,1.09571 -6.58161,-0.69667 -8.02675,-4.00015 -1.44479,-3.30348 -0.1941,-6.86861 2.79378,-7.96105 2.98787,-1.09571 6.58161,0.69667 8.02675,4.00015" /><path
       id="path194"
       style="fill:#1b1b43;fill-opacity:1;fill-rule:nonzero;stroke:none;stroke-width:0.0341923"
       d="m 229.04967,230.88682 c 0.12797,-1.1415 0.13655,-2.22413 -0.22697,-3.21844 -0.3528,-0.99758 -1.04481,-1.86434 -1.84191,-2.76053 l 0.25164,-0.28456 c 1.15848,0.55276 2.1418,1.54054 2.56109,2.76053 0.42142,1.22 0.23841,2.54793 -0.36031,3.60766 l -0.38354,-0.10466" /><path
       id="path196"
       style="fill:#1b1b43;fill-opacity:1;fill-rule:nonzero;stroke:none;stroke-width:0.0341923"
       d="m 257.03717,227.42961 c 0,0.96815 -0.77458,1.75314 -1.73075,1.75314 -0.95544,0 -1.73038,-0.78499 -1.73038,-1.75314 0,-0.96814 0.77494,-1.75313 1.73038,-1.75313 0.95617,0 1.73075,0.78499 1.73075,1.75313" /><path
       id="path198"
       style="fill:#1b1b43;fill-opacity:1;fill-rule:nonzero;stroke:none;stroke-width:0.0341923"
       d="m 266.12375,228.80988 c -0.1151,0.85367 -0.8929,1.47185 -1.73754,1.37372 -0.84464,-0.0949 -1.43621,-0.86348 -1.32111,-1.72042 0.1151,-0.85367 0.89289,-1.46858 1.73753,-1.37373 0.84464,0.0949 1.43585,0.86349 1.32112,1.72043" /><path
       id="path200"
       style="fill:#1b1b43;fill-opacity:1;fill-rule:nonzero;stroke:none;stroke-width:0.0341923"
       d="m 256.94924,223.03043 c 0.069,0.81769 -1.36222,0.89619 -3.4715,0.95506 -2.10927,0.0556 -3.56657,0.65416 -3.58337,0.13411 -0.0168,-0.51679 1.54344,-1.84799 3.62412,-2.16852 2.14609,-0.33362 3.34818,0.10466 3.43075,1.07935" /><path
       id="path202"
       style="fill:#1b1b43;fill-opacity:1;fill-rule:nonzero;stroke:none;stroke-width:0.0341923"
       d="m 263.68777,223.81869 c -0.15513,0.80788 0.89754,1.01393 2.45671,1.26578 1.55881,0.24858 2.56537,0.97469 2.64365,0.46118 0.0779,-0.51351 -0.91184,-1.97554 -2.41632,-2.48578 -1.5513,-0.5266 -2.49925,-0.20279 -2.68404,0.75882" /><path
       id="path204"
       style="fill:#1b1b43;fill-opacity:1;fill-rule:nonzero;stroke:none;stroke-width:0.0341923"
       d="m 261.17994,230.26537 c 0.39962,0.4481 0.845,0.83405 1.30002,1.23308 l 0.69094,0.58874 c 0.23913,0.19625 0.49756,0.41539 0.72812,0.74574 0.11295,0.1668 0.20481,0.38268 0.21982,0.62471 0.0204,0.24531 -0.0633,0.48081 -0.17085,0.66397 -0.23735,0.36305 -0.51937,0.57565 -0.82606,0.76536 -0.61266,0.36632 -1.275,0.52005 -1.9159,0.63453 l -0.14977,-0.34016 c 0.55083,-0.32708 1.09986,-0.61818 1.52736,-0.95507 0.2041,-0.16681 0.40499,-0.36959 0.47719,-0.52659 0.0793,-0.15373 0.0561,-0.20606 -0.0386,-0.38922 -0.22734,-0.34343 -0.80818,-0.79807 -1.18743,-1.27233 -0.41464,-0.47099 -0.78817,-1.0074 -1.00621,-1.59614 l 0.35137,-0.17662" /><path
       id="path206"
       style="fill:#1b1b43;fill-opacity:1;fill-rule:nonzero;stroke:none;stroke-width:0.0341923"
       d="m 252.50657,236.03501 c 1.04695,1.09571 2.13715,2.10637 3.44826,2.74744 1.30288,0.6607 2.78663,0.84713 4.35581,0.69014 l 0.10652,0.35324 c -0.75814,0.31072 -1.61315,0.47426 -2.47638,0.42847 -0.86358,-0.0327 -1.71859,-0.27147 -2.471,-0.65088 -1.51235,-0.76863 -2.62686,-2.01153 -3.30064,-3.3689 l 0.33743,-0.19951" /><path
       id="path208"
       style="fill:#ffa988;fill-opacity:1;fill-rule:nonzero;stroke:none;stroke-width:0.0341923"
       d="m 246.36247,235.04069 c -2.33519,0 -4.22821,-1.7335 -4.22821,-3.86932 0,-2.13581 1.89302,-3.86932 4.22821,-3.86932 2.33518,0 4.22784,1.73351 4.22784,3.86932 0,2.13582 -1.89266,3.86932 -4.22784,3.86932" /><path
       id="path210"
       style="fill:#ffa988;fill-opacity:1;fill-rule:nonzero;stroke:none;stroke-width:0.0341923"
       d="m 266.30497,237.59516 c -0.65591,-0.68359 -1.05517,-1.57324 -1.05517,-2.55774 0,-1.63211 1.10664,-3.01892 2.66367,-3.5913 -0.3889,2.05404 -0.91184,4.15388 -1.6085,6.14904 v 0" /><path
       id="path212"
       style="fill:#ffa121;fill-opacity:1;fill-rule:nonzero;stroke:none;stroke-width:0.0341923"
       d="m 219.67821,277.19109 -24.41984,10.62673 7.65895,16.61224 25.60405,-10.80335 -8.84316,-16.43562" /><path
       id="path214"
       style="fill:#c5c5ff;fill-opacity:1;fill-rule:nonzero;stroke:none;stroke-width:0.0341923"
       d="m 310.13473,334.80896 c -0.67736,-0.31072 -1.10093,-0.52005 -1.10093,-0.52005 l 0.24449,-0.44156 c 0,0 0.4511,0.19952 1.10558,0.52006 l -0.24914,0.44155" /><path
       id="path216"
       style="fill:#ffbc96;fill-opacity:1;fill-rule:nonzero;stroke:none;stroke-width:0.0341923"
       d="m 320.26111,337.11812 c -0.78888,1.42606 -6.83432,-1.0957 -9.65205,-2.36149 2.18255,1.10552 5.94286,3.28058 4.27288,4.47114 -1.3422,0.94852 -4.31363,-1.06954 -14.04754,-4.76224 1.47553,0.6378 10.17428,4.42535 7.98172,5.85795 -2.38737,1.55688 -12.6335,-1.87415 -12.6335,-1.87415 l -8.88319,4.36974 H 277.0533 l -36.86568,0.21588 c -2.31552,0.01 -4.61066,-0.26167 -6.83432,-0.78826 -4.37511,-1.02048 -8.49394,-3.00911 -11.98795,-5.68133 -2.20293,-1.68771 -4.09845,-3.66653 -5.68658,-5.84159 -1.1885,-1.63211 -2.20292,-3.38525 -3.04291,-5.21361 l -9.72355,-21.07356 25.60477,-10.81316 13.36125,24.81859 44.05817,8.75585 12.29535,-2.81286 c 2.64365,-0.60836 6.38359,0.41539 8.70948,1.71715 5.6762,3.17919 14.05719,9.65531 13.31978,11.01595" /><path
       id="path218"
       style="fill:#ffa988;fill-opacity:1;fill-rule:nonzero;stroke:none;stroke-width:0.0341923"
       d="m 233.3533,342.24669 v 0 c -4.37511,-1.02048 -8.49394,-3.00911 -11.98795,-5.68133 -2.20293,-1.68771 -4.09845,-3.66653 -5.68658,-5.84159 1.93663,-1.42605 4.39549,-2.27645 7.07024,-2.27645 6.22918,0 11.27056,4.61178 11.27056,10.31273 0,1.22654 -0.23591,2.40074 -0.66627,3.48664" /><path
       id="path220"
       style="fill:#d28572;fill-opacity:1;fill-rule:nonzero;stroke:none;stroke-width:0.0341923"
       d="m 285.87323,327.02126 c 3.05507,-0.9289 6.15089,-1.73024 9.30998,-2.33533 1.57955,-0.29764 3.17839,-0.53968 4.80905,-0.62472 0.81533,-0.0425 1.63995,-0.0294 2.47244,0.0589 0.41142,0.0752 0.82105,0.17335 1.23175,0.26166 0.39104,0.12429 0.77244,0.27147 1.15919,0.40557 2.99752,1.2429 5.60901,3.0222 8.13471,4.85056 2.52498,1.84144 4.90842,3.82025 7.22501,5.88084 l 0.10652,0.0949 0.0225,0.12102 c 0.0822,0.44482 0.0261,0.85367 -0.24307,1.26906 -0.16514,0.17335 -0.33456,0.36632 -0.55689,0.44809 -0.21447,0.12756 -0.42751,0.17335 -0.64019,0.20606 -0.84892,0.12756 -1.59169,-0.0327 -2.30122,-0.20606 -1.42441,-0.35978 -2.69548,-0.95506 -3.97728,-1.53072 -1.25391,-0.61163 -2.48995,-1.24943 -3.68846,-1.93956 -1.21852,-0.6607 -2.37628,-1.39989 -3.56336,-2.09984 l 0.54153,-0.79479 c 2.09605,1.13822 4.1342,2.33205 6.0837,3.68615 0.96724,0.69013 1.92519,1.39008 2.7491,2.31244 0.1973,0.2453 0.3964,0.49061 0.53402,0.82423 0.0761,0.157 0.11688,0.35651 0.12224,0.57238 -0.0186,0.22569 -0.0947,0.46445 -0.26308,0.64108 -0.32277,0.34016 -0.71131,0.45463 -1.03944,0.52986 -0.34172,0.0818 -0.66127,0.0981 -0.98619,0.12756 l -0.10044,0.01 -0.10938,-0.0425 -11.12222,-4.26181 0.33278,-0.7163 c 1.75255,0.7392 3.45791,1.53399 5.08428,2.51195 0.79281,0.51678 1.62708,0.98777 2.21115,1.88397 0.13332,0.22568 0.22948,0.57238 0.0911,0.89619 -0.14012,0.31399 -0.41178,0.51351 -0.66056,0.62144 -0.51401,0.23877 -1.0323,0.28783 -1.53022,0.314 -1.99418,0.0425 -3.86575,-0.38595 -5.7241,-0.80461 -1.85263,-0.4481 -3.67274,-0.97796 -5.47318,-1.57324 l 0.13511,-0.34343 c 1.79723,0.54949 3.62627,1.03356 5.46853,1.43586 1.83584,0.37941 3.72779,0.74901 5.55397,0.66724 0.87144,-0.0327 1.91053,-0.38268 1.4866,-0.90927 -0.39962,-0.61491 -1.22496,-1.13823 -1.98238,-1.59941 -1.57382,-0.91581 -3.28491,-1.69099 -5.00099,-2.38766 l 0.33278,-0.7163 11.16261,4.1735 -0.20946,-0.0327 c 0.27487,-0.0262 0.5594,-0.0425 0.8021,-0.10466 0.25164,-0.0491 0.45467,-0.15373 0.5233,-0.22895 0.1562,-0.0589 -0.0536,-0.56258 -0.4032,-0.93871 -0.7081,-0.78826 -1.64567,-1.48493 -2.58432,-2.14236 -1.8991,-1.30831 -3.93688,-2.48905 -5.99433,-3.59457 l 0.54153,-0.79153 c 1.17849,0.69013 2.32159,1.43587 3.52118,2.09002 1.1817,0.68359 2.39272,1.31485 3.6159,1.91994 1.23675,0.56258 2.48673,1.14804 3.7814,1.47512 0.63482,0.16681 1.31003,0.28129 1.85191,0.19625 l 0.19803,-0.0294 c 0.0611,-0.0163 0.0979,-0.0523 0.15012,-0.072 0.11867,-0.0327 0.15442,-0.11775 0.23448,-0.17008 0.10009,-0.14064 0.14477,-0.4023 0.10938,-0.59201 l 0.12904,0.21587 c -2.26727,-2.0475 -4.65249,-4.00996 -7.11349,-5.86448 -2.46636,-1.83491 -5.03817,-3.61748 -7.87985,-4.8342 l -1.08162,-0.39576 c -0.3696,-0.0818 -0.73526,-0.17663 -1.10736,-0.24858 -0.76207,-0.0883 -1.54309,-0.11448 -2.33054,-0.0818 -1.57489,0.0589 -3.15766,0.25839 -4.7254,0.52332 -3.13693,0.53314 -6.24598,1.26906 -9.30033,2.13254 l -0.12654,-0.34997" /><path
       id="path222"
       style="fill:#1b1b43;fill-opacity:1;fill-rule:nonzero;stroke:none;stroke-width:0.0341923"
       d="m 203.0728,304.75386 -0.3217,-0.6378 25.26628,-10.66597 -10.52351,-22.5356 0.70667,-0.27802 10.81696,23.16359 -25.9447,10.9538" /><path
       id="path224"
       style="fill:#1b1b43;fill-opacity:1;fill-rule:nonzero;stroke:none;stroke-width:0.0341923"
       d="m 206.68728,509.08535 h -1.34042 V 403.45259 h 1.34042 v 105.63276" /><path
       id="path226"
       style="fill:#d1d1ff;fill-opacity:1;fill-rule:nonzero;stroke:none;stroke-width:0.0341923"
       d="m 238.2921,408.1396 h -64.55078 c -4.38547,0 -7.94061,-3.25441 -7.94061,-7.26765 v 0 c 0,-4.01323 3.55514,-7.26437 7.94061,-7.26437 h 64.55078 c 4.38548,0 7.94061,3.25114 7.94061,7.26437 v 0 c 0,4.01324 -3.55513,7.26765 -7.94061,7.26765" /><path
       id="path228"
       style="fill:#d1d1ff;fill-opacity:1;fill-rule:nonzero;stroke:none;stroke-width:0.0341923"
       d="m 233.16886,515.9605 h -54.30429 v -1.20037 c 0,-6.03457 5.34557,-10.92764 11.94041,-10.92764 h 30.42382 c 6.59448,0 11.94006,4.89307 11.94006,10.92764 v 1.20037" /><path
       id="path230"
       style="fill:#1b1b43;fill-opacity:1;fill-rule:nonzero;stroke:none;stroke-width:0.0341923"
       d="m 397.39427,515.56474 -114.41526,-165.94901 1.13345,-0.65415 114.41526,165.94901 -1.13345,0.65415" /><path
       id="path232"
       style="fill:#1b1b43;fill-opacity:1;fill-rule:nonzero;stroke:none;stroke-width:0.0341923"
       d="m 284.11246,515.56474 -1.13345,-0.65415 114.41526,-165.94901 1.13345,0.65415 -114.41526,165.94901" /><path
       id="path234"
       style="fill:#d1d1ff;fill-opacity:1;fill-rule:nonzero;stroke:none;stroke-width:0.0341923"
       d="M 440.9949,356.3437 H 240.51218 V 342.50835 H 440.9949 v 13.83535" /><g
       transform="matrix(0.03643103,0,0,-0.033336,42.588044,588.64026)"
       id="g236"><path
         id="path238"
         style="fill:#9192ff;fill-opacity:1;fill-rule:nonzero;stroke:none"
         d="m 5894.12,16275.5 c -620.6,0 -1125.5,-504.9 -1125.5,-1125.5 0,-620.6 504.9,-1125.5 1125.5,-1125.5 620.61,0 1125.51,504.9 1125.51,1125.5 0,620.6 -504.9,1125.5 -1125.51,1125.5 z m 0,-2275.6 c -634.12,0 -1150.03,515.9 -1150.03,1150.1 0,634.1 515.91,1150 1150.03,1150 634.14,0 1150.04,-515.9 1150.04,-1150 0,-634.2 -515.9,-1150.1 -1150.04,-1150.1" /></g><g
       transform="matrix(0.03766457,0,0,-0.03446475,42.588044,588.64026)"
       id="g240"><path
         id="path242"
         style="fill:#ebebff;fill-opacity:1;fill-rule:nonzero;stroke:none"
         d="m 7663.63,15089.7 c 0,-668.5 -541.88,-1210.3 -1210.32,-1210.3 -668.44,0 -1210.32,541.8 -1210.32,1210.3 0,668.4 541.88,1210.3 1210.32,1210.3 668.44,0 1210.32,-541.9 1210.32,-1210.3" /></g><g
       transform="matrix(0.03609503,0,0,-0.03302855,42.588044,588.64026)"
       id="g244"><path
         id="path246"
         style="fill:#1b1b43;fill-opacity:1;fill-rule:nonzero;stroke:none"
         d="m 6734.37,15721.9 -700.15,548.9 22.92,29.2 676.34,-530.2 377.12,319.3 24.02,-28.3 -400.25,-338.9" /></g><path
       id="path248"
       style="fill:#ffffff;fill-opacity:1;fill-rule:nonzero;stroke:none;stroke-width:0.0341923"
       d="m 167.35273,158.53414 h -23.14842 c -3.72492,0 -6.7446,2.7638 -6.7446,6.17194 v 21.1815 c 0,3.40814 3.01968,6.17194 6.7446,6.17194 h 16.51998 l 7.11814,8.99461 v -9.01751 c 3.49544,-0.22895 6.25526,-2.89136 6.25526,-6.14904 v -21.1815 c 0,-3.40814 -3.02004,-6.17194 -6.74496,-6.17194" /><path
       id="path250"
       style="fill:#9192ff;fill-opacity:1;fill-rule:nonzero;stroke:none;stroke-width:0.0341923"
       d="m 144.20431,158.94298 c -3.47292,0 -6.29816,2.58391 -6.29816,5.7631 v 21.1815 c 0,3.17919 2.82524,5.76309 6.29816,5.76309 h 16.74839 l 6.44257,8.14095 v -8.13441 l 0.41463,-0.0294 c 3.2749,-0.21587 5.84063,-2.73764 5.84063,-5.7402 v -21.1815 c 0,-3.17919 -2.82523,-5.7631 -6.2978,-5.7631 z m 24.08457,43.37367 -7.79299,-9.84829 h -16.29158 c -3.96548,0 -7.19177,-2.9535 -7.19177,-6.58078 v -21.1815 c 0,-3.62729 3.22629,-6.58079 7.19177,-6.58079 h 23.14842 c 3.96548,0 7.19141,2.9535 7.19141,6.58079 v 21.1815 c 0,3.30347 -2.71586,6.09344 -6.25526,6.51864 v 9.91043" /><path
       id="path252"
       style="fill:#9192ff;fill-opacity:1;fill-rule:nonzero;stroke:none;stroke-width:0.0341923"
       d="m 155.30401,186.1983 -9.26565,-12.24903 2.20399,-1.39662 6.81932,9.01424 10.27007,-16.81829 2.34019,1.1971 -12.36792,20.2526" /><g
       transform="matrix(0.03895566,0,0,-0.03564615,42.588044,588.64026)"
       id="g254"><path
         id="path256"
         style="fill:#1b1b43;fill-opacity:1;fill-rule:nonzero;stroke:none"
         d="M 16300,2038.92 H 2202.16 v 34.41 H 16300 v -34.41" /></g></g></svg>
